<svg width="128" height="128" viewBox="0 0 128 128" fill="none" xmlns="http://www.w3.org/2000/svg">
<path fill-rule="evenodd" clip-rule="evenodd" d="M41.0437 25.0713C48.6038 25.6165 56.4878 29.2947 64.0324 36.7204C71.577 29.2871 79.4533 25.6242 87.0056 25.0943C95.5377 24.4877 103.075 27.9202 108.529 33.3339C119.251 43.9771 122.623 63.2438 109.315 76.4901L109.177 76.6207L66.6244 114.993C65.9147 115.634 64.9583 117 64 117C63.0417 117 62.1501 115.634 61.4404 114.993L18.8882 76.6207L18.7494 76.4901C5.37273 63.1747 8.72074 43.908 19.4822 33.2725C24.9517 27.8664 32.504 24.4569 41.0437 25.0713Z" fill="#287EE1"/>
<path d="M77 77H51V64H33V38H51V12H77V38H97V64H77V77Z" fill="white" stroke="white"/>
<path d="M55.1312 47.7009C54.3237 47.1178 53.5611 46.8262 52.8433 46.8262C52.3947 46.8262 52.0359 46.9458 51.7667 47.185C51.4975 47.4243 51.363 47.7084 51.363 48.0374C51.363 48.3514 51.505 48.6206 51.7891 48.8449C52.0882 49.0692 52.5518 49.3308 53.1798 49.6299C53.8078 49.914 54.3162 50.1757 54.705 50.415C55.6321 50.9832 56.0957 51.7832 56.0957 52.815C56.0957 53.428 55.9237 53.9888 55.5798 54.4972C55.2508 55.0056 54.7798 55.4093 54.1667 55.7084C53.5536 56.0075 52.7835 56.157 51.8564 56.157C50.9293 56.157 49.92 55.9252 48.8284 55.4617L49.1648 53.3533L49.4116 53.1963C49.8602 53.585 50.3461 53.8841 50.8695 54.0935C51.4078 54.3028 51.9013 54.4075 52.3499 54.4075C52.8134 54.4075 53.1798 54.2879 53.4489 54.0486C53.7181 53.8093 53.8527 53.5178 53.8527 53.1738C53.8527 52.8299 53.7032 52.5458 53.4041 52.3215C53.105 52.0972 52.634 51.843 51.991 51.5589C51.363 51.2598 50.862 50.9907 50.4882 50.7514C49.5761 50.1981 49.12 49.4056 49.12 48.3738C49.12 47.7458 49.2845 47.185 49.6134 46.6916C49.9574 46.1832 50.4284 45.7794 51.0265 45.4804C51.6396 45.1813 52.3648 45.0393 53.2022 45.0542C54.0396 45.0692 54.9144 45.2561 55.8265 45.615L55.4676 47.5664L55.1312 47.7009ZM66.9964 56H64.7086L64.8432 52.7701L64.8207 51.514L62.3759 51.4692L60.1777 51.514L60.1553 52.5682L60.245 56H57.9572L58.0918 52.7701L57.9572 45.1888H60.2899L60.2002 49.6299L62.5105 49.6972L64.7983 49.6299L64.7086 45.1888H67.0413L66.9067 52.5682L66.9964 56ZM78.8926 56L78.7132 52.7252L78.3543 48.5533H78.1749L75.7524 54.8561H74.0029L71.7823 48.5533H71.6478L71.2216 52.5009L70.9749 56H69.0683L70.1674 45.1888H72.7917L73.2178 46.7813L74.9449 51.8953H75.0795L76.8963 46.7813L77.3674 45.1888H79.9244L80.9113 56H78.8926Z" fill="#008CFF"/>
</svg>
